<?xml version="1.0" standalone="no"?>
<!DOCTYPE svg PUBLIC "-//W3C//DTD SVG 1.1//EN" "http://www.w3.org/Graphics/SVG/1.1/DTD/svg11.dtd">
<svg xmlns="http://www.w3.org/2000/svg">
<metadata>Copyright (C) 2023 by original authors @ fontello.com</metadata>
<defs>
<font id="fontello" horiz-adv-x="1000" >
<font-face font-family="fontello" font-weight="400" font-stretch="normal" units-per-em="1000" ascent="850" descent="-150" />
<missing-glyph horiz-adv-x="1000" />
<glyph glyph-name="search-thin" unicode="&#xe800;" d="M188 450c0-117 95-213 212-213 55 0 104 21 142 55 0 0-1-1-1-1 0 0 225-225 225-225 0 0 18 18 18 18 0 0-225 225-225 225 0 0-1-1-1-1 34 38 55 87 55 142 0 117-96 212-213 212-117 0-212-95-212-212 0 0 0 0 0 0m400 0c0-104-84-188-188-188-104 0-188 84-188 188 0 104 84 187 188 187 104 0 188-83 188-187 0 0 0 0 0 0" horiz-adv-x="1000" />

<glyph glyph-name="user" unicode="&#xe801;" d="M4-105q-14 43 25 70 119 78 291 116-84 105-119 255-10 55-11 122t23 149 66 138q84 105 223 105t222-105q43-57 67-138t22-149-11-122q-35-150-119-255 172-38 291-116 39-27 26-71t-61-44l-875 0q-21 0-38 13t-22 32z m60 17l875 0q-109 73-267 108l-79 16q-45-30-91-30t-92 30l-78-16q-160-35-268-108z m193 602q-13-103 16-208t96-186l10-14q56-65 123-65t123 65l9 14q67 82 96 186t16 208q-14 113-76 193t-168 80-168-80-77-193z" horiz-adv-x="1003" />

<glyph glyph-name="basket-thin" unicode="&#xe802;" d="M412 754c-37-13-85-59-108-104-23-45-40-128-29-140 14-14 23 0 27 44 11 101 91 188 175 188 85 0 177-104 177-200 0-31 11-45 25-32 11 12-6 95-29 140-22 43-68 88-105 104-36 14-93 15-133 0z m-315-309c-7-6-12-16-12-20 0-23 102-472 109-481 11-14 555-14 566 1 7 8 109 456 109 478 0 6-5 16-12 22-11 11-55 13-380 13-325 0-369-2-380-13z m746-20c2-3-94-440-100-456-4-10-35-11-268-10l-263 2-52 231c-28 127-48 233-45 235 6 4 725 2 728-2z" horiz-adv-x="954" />

<glyph glyph-name="login-thin" unicode="&#xe803;" d="M250 739c146 1 292 0 439-4 14-9 25-21 34-35 5-233 5-467 0-700-9-14-20-26-34-35-147-5-293-5-439 0-14 9-26 21-35 35-3 44-5 87-3 131 10 0 20 0 30 0-2-39 2-78 12-116 9-10 20-17 35-19 128-7 256-5 384 8 11 9 17 20 19 35 5 207 5 415 0 623-2 14-8 25-19 34-128 13-256 15-384 8-15-2-26-9-35-19-10-35-14-71-12-108-10 0-20 0-30 0-2 41 0 82 3 123 11 14 22 27 35 39z m162-308c39-32 83-57 130-77-46-18-87-44-123-77-9 19-6 37 8 54-97 8-195 10-292 8 0 10 0 20 0 30 97-2 195 0 292 8-11 16-16 34-15 54z" horiz-adv-x="954" />

<glyph glyph-name="arrow-right" unicode="&#xe804;" d="M492 835c6 1 13 0 20-1 160-159 318-319 473-482-24-28-48-56-74-83-133-133-266-266-399-399-24-4-31 6-22 28 146 144 290 289 433 436-301 1-601 2-902 3-8 10-8 20 0 29 301 2 601 3 902 4-143 146-287 291-433 436-6 10-6 20 2 29z" horiz-adv-x="1003" />

<glyph glyph-name="arrow-left" unicode="&#xe805;" d="M489 835c23 2 30-8 21-29-145-145-290-290-433-436 301-1 601-2 902-4 8-9 8-19 0-29-301-1-601-2-902-3 143-147 288-292 433-436 9-22 2-32-21-28-161 158-319 319-474 482 24 28 49 55 74 82 134 133 267 267 400 401z" horiz-adv-x="1003" />

<glyph glyph-name="left-open" unicode="&#xe806;" d="M654 682l-297-296 297-297q10-10 10-25t-10-25l-93-93q-11-10-25-10t-25 10l-414 415q-11 10-11 25t11 25l414 414q10 11 25 11t25-11l93-93q10-10 10-25t-10-25z" horiz-adv-x="714.3" />

<glyph glyph-name="right-open" unicode="&#xe807;" d="M618 361l-414-415q-11-10-25-10t-25 10l-93 93q-11 11-11 25t11 25l296 297-296 296q-11 11-11 25t11 25l93 93q10 11 25 11t25-11l414-414q10-11 10-25t-10-25z" horiz-adv-x="714.3" />

<glyph glyph-name="left-open-1" unicode="&#xe808;" d="M242 626q14 16 39 16t41-16q38-36 0-80l-186-196 186-194q38-44 0-80-16-16-40-16t-40 16l-226 236q-16 16-16 38 0 24 16 40 206 214 226 236z" horiz-adv-x="341" />

<glyph glyph-name="right-open-1" unicode="&#xe809;" d="M98 626l226-236q16-16 16-40 0-22-16-38l-226-236q-16-16-40-16t-40 16q-36 36 0 80l186 194-186 196q-36 44 0 80 16 16 41 16t39-16z" horiz-adv-x="340" />

<glyph glyph-name="toman-1" unicode="&#xe80a;" d="M151 835c-26-18-10-71 21-71 15 0 34 17 38 35 3 13 0 19-11 30-17 18-30 19-48 6z m135-104c-12-14-12-22-1-67 13-48 7-79-19-108-22-24-47-34-91-34-37 0-74 18-89 42-10 16-11 24-8 53 2 19 4 46 5 61l0 25-20 0c-18 0-21-2-34-28-18-36-23-105-10-137 32-75 114-111 204-88 66 17 112 63 128 126 10 40 5 118-10 142-13 24-40 30-55 13z m-264-301c-12-12-12-15-8-140 6-192 11-217 50-246 24-18 83-20 117-5l27 12 18-14c42-32 98-22 119 21 25 49 8 126-32 145-41 19-67 5-132-73-16-18-22-21-44-21-32 0-48 11-56 39-3 11-6 78-6 148 0 116-1 128-11 136-14 13-27 12-42-2z m282-306c16-35-17-58-50-35-16 11-16 24 0 41 17 18 39 15 50-6z m386 220c-16-15-15-41 1-56 17-16 27-16 47-1 10 8 15 18 15 29 0 10-5 20-15 28-19 15-33 15-48 0z m95-3c-9-7-15-19-15-25 0-16 25-41 40-41 17 0 35 20 35 41 0 20-18 40-35 40-7 0-18-7-25-15z m-37-115c-12-9-13-13-10-40 2-17 5-34 7-39 2-6-3-15-12-24-12-13-19-14-57-14-43 0-44 0-47 16-23 93-109 122-156 52-18-27-25-86-13-108 10-20 40-35 70-35 15 0 29-2 30-6 7-11-54-68-101-92-53-27-64-42-49-66 13-19 27-18 77 7 57 28 99 67 123 114l19 37 38 0c85 0 129 31 139 100 6 34-5 85-19 97-15 12-22 12-39 1z m-196-89c6-6 11-16 11-23 0-9-4-11-22-11-23 0-35 8-35 23 0 23 27 30 46 11z" horiz-adv-x="851" />

<glyph glyph-name="toman" unicode="&#xe80b;" d="M231 842c-28-14-24-54 7-67 23-10 46-4 60 16 25 38-20 74-67 51z m74-197c-1-41-5-66-11-72-7-9-26-10-151-10l-143 0 0-32 0-31 143 1c93 0 149 2 163 7 12 5 30 18 40 31 19 24 20 27 22 96l2 71-31 0-31 0-3-61z m-299-379c0-190 2-200 38-219 32-17 78-23 127-15 55 8 51 9 87-4 56-20 110 2 138 58 15 28 13 103-2 137-20 45-67 69-118 61-60-10-88-51-93-136-3-44-5-50-18-55-21-10-82-1-90 13-4 7-6 78-6 172l0 160-31 0-32 0 0-172z m332-57c13-14 15-23 15-56 0-33-2-42-15-55-30-32-87-17-98 25-7 27 1 71 17 87 20 21 60 21 81-1z m489 160c-11-5-14-11-14-30 0-27 6-36 31-42 34-8 67 44 42 65-13 10-43 14-59 7z m125-3c-16-12-19-38-6-57 6-8 17-11 32-11 16 0 26 3 32 11 11 15 11 44 1 53-16 12-45 14-59 4z m-389-85c-45-10-69-57-69-129 0-83 34-119 122-125 53-4 55-7 33-52-22-43-50-56-123-56l-58 0 3-20c2-10 4-25 4-32 0-12 3-12 64-10 73 4 108 16 141 49 26 26 39 51 44 87l4 29 95 3c83 3 97 5 112 16 38 28 43 42 45 119l3 71-32 0-32 0 0-58c0-87 0-86-106-84l-85 2-4 57c-6 93-36 131-106 136-19 2-44 0-55-3z m81-72c14-14 15-23 18-70l2-53-39 3c-34 2-42 5-55 20-13 16-15 23-12 54 3 45 16 62 48 62 17 0 27-4 38-16z" horiz-adv-x="1025" />

<glyph glyph-name="toman-2" unicode="&#xe80c;" d="M262 832c-20-16-20-40 0-56 19-15 33-16 48-1 23 23 7 69-22 69-6 0-17-5-26-12z m20-129c-12-9-13-13-10-40 2-17 6-34 7-39 2-6-3-15-11-24l-15-14-118 0-118 0 0-41 0-40 111 0c142 0 174 9 198 54 22 42 19 123-5 143-15 12-22 12-39 1z m-260-267c-12-12-12-15-8-140 6-192 11-217 50-247 24-17 83-20 117-4l27 12 18-14c42-32 98-22 119 20 25 50 8 127-32 146-41 19-67 5-132-73-16-19-22-22-44-22-32 0-48 12-56 39-3 12-6 79-6 149 0 115-1 127-11 136-14 13-27 12-42-2z m282-307c16-34-17-58-50-34-16 11-16 23 0 41 17 18 39 15 50-7z m386 221c-16-15-15-41 1-56 17-16 27-16 47-1 10 8 15 17 15 28 0 11-5 21-15 28-19 15-33 16-48 1z m95-3c-9-7-15-19-15-26 0-15 25-40 40-40 17 0 35 20 35 40 0 20-18 41-35 41-7 0-18-7-25-15z m-37-115c-12-9-13-13-10-41 2-16 5-33 7-39 2-5-3-15-12-23-12-13-19-15-57-15-43 0-44 1-47 17-23 93-109 122-156 52-18-27-25-86-13-108 10-20 40-35 70-35 15 0 29-3 30-6 7-12-54-68-101-92-53-28-64-43-49-66 13-20 27-19 77 7 57 27 99 66 123 114l19 37 38 0c85 0 129 31 139 99 6 34-5 86-19 98-15 12-22 12-39 1z m-196-89c6-6 11-17 11-23 0-9-4-11-22-11-23 0-35 8-35 23 0 23 27 30 46 11z" horiz-adv-x="856" />

<glyph glyph-name="left" unicode="&#xe80d;" d="M0 353l390 391q19 18 44 18 25 0 43-18t18-44-18-43l-243-243h642q25 0 43-18t18-43-18-43-43-18h-642l243-243q18-18 18-44t-18-43-43-18-44 18z" horiz-adv-x="938" />

<glyph glyph-name="right" unicode="&#xe80e;" d="M0 347q0 26 18 43t43 17h642l-242 244q-19 18-19 44t19 42q17 19 42 19t44-19l390-390-390-391q-20-18-44-18t-42 18-19 44 19 43l242 242h-642q-25 0-43 18t-18 44z" horiz-adv-x="938" />

<glyph glyph-name="up-dir" unicode="&#xe80f;" d="M571 171q0-14-10-25t-25-10h-500q-15 0-25 10t-11 25 11 26l250 250q10 10 25 10t25-10l250-250q10-11 10-26z" horiz-adv-x="571.4" />

<glyph glyph-name="up-open" unicode="&#xe810;" d="M939 107l-92-92q-11-10-26-10t-25 10l-296 297-296-297q-11-10-25-10t-25 10l-93 92q-11 11-11 26t11 25l414 414q11 10 25 10t25-10l414-414q11-11 11-25t-11-26z" horiz-adv-x="1000" />

<glyph glyph-name="up-open-mini" unicode="&#xe811;" d="M62 230q-26-22-50 0-24 24 0 50l196 190q26 26 48 0l196-190q24-26 0-50-24-22-50 0l-170 158z" horiz-adv-x="464" />

<glyph glyph-name="up-open-1" unicode="&#xe812;" d="M564 280q16-16 16-41t-16-41q-38-38-78 0l-196 188-196-188q-40-38-78 0-16 16-16 41t16 41l234 224q16 16 40 16t40-16z" horiz-adv-x="580" />

<glyph glyph-name="x-line" unicode="&#xe813;" d="M10 842c1-1 18-24 39-51 20-28 64-86 97-131 193-258 226-303 247-330 12-16 22-30 22-31 0-1-8-10-18-21-10-11-19-20-20-21-4-5-37-41-46-50-21-23-54-58-99-107-14-15-31-34-38-41-7-8-21-23-31-33-10-11-23-25-28-31-6-6-15-16-21-22-10-11-49-54-86-93-11-12-20-22-20-23 0 0 20-1 44-1l45 0 7 9c5 4 16 16 26 27 10 11 23 25 28 31 6 6 16 16 22 23 7 7 24 26 39 43 16 16 37 40 49 52 12 13 33 36 48 52 15 16 36 39 48 53 13 13 34 36 48 51 15 16 30 33 35 38l9 9 5-5c2-2 44-58 92-123 49-65 113-150 141-189l53-70 156 0c85-1 155 0 155 0 0 1-28 39-62 85-35 45-84 112-111 148-27 36-95 127-151 202-56 75-103 138-103 139-1 1 1 4 4 7 3 3 39 42 80 86 41 44 84 91 96 103 11 13 26 29 32 36 38 41 162 174 164 176 1 1 2 3 2 3 0 1-20 2-44 2l-45 0-17-19c-9-10-22-24-29-31-7-8-29-31-49-53-19-21-40-44-46-50-6-6-16-17-22-24-6-6-19-21-30-32-57-62-92-99-114-124-11-11-21-22-22-23-2-1-5 1-15 15-48 64-213 285-232 310l-23 31-156 0c-118 0-155-1-155-2z m282-71c2-2 36-47 75-99 38-52 100-134 137-184 37-50 99-132 138-184 81-108 193-259 246-330 20-27 37-49 37-49 0-1-33-1-73-1l-72 0-38 50c-21 28-72 97-114 153-43 57-100 134-129 172-48 65-103 138-281 376-40 53-73 98-73 99-1 2 8 2 71 2l72 0 4-5z" horiz-adv-x="1066" />

<glyph glyph-name="telegram-line" unicode="&#xe814;" d="M1013 840c-9-1-50-17-70-26-5-2-17-7-26-11-10-4-26-11-37-15-11-5-26-11-33-14-8-3-18-8-22-10-5-2-11-4-14-5-3-1-12-5-21-9-34-14-31-13-58-25-12-5-26-11-31-13-5-2-10-4-10-4-1 0-37-15-65-27-8-4-15-6-16-6 0 0-8-4-16-7-8-4-15-7-16-7-1 0-23-10-48-21-8-3-15-6-15-6-1 0-7-2-14-6-7-3-14-6-17-7-5-2-43-18-49-21-2-1-7-3-11-4-4-2-10-4-14-6-4-2-8-4-9-4-1 0-8-3-15-6-36-15-47-20-56-24-5-2-10-4-11-4 0 0-7-3-14-6-7-3-16-7-21-9-4-2-14-6-21-9-8-3-14-6-15-6 0 0-7-3-14-6-7-3-14-6-14-6-1 0-44-18-54-23-4-2-8-4-9-4 0 0-6-2-11-4-5-3-11-5-12-5-4-1-63-27-74-32-23-13-39-28-45-47-6-16-7-21-5-32 4-18 12-32 26-46 10-10 24-20 29-20 0 0 2-1 3-2 1-1 10-4 20-7 59-20 101-34 145-49l49-16 2-7c1-4 5-16 8-27 3-11 7-23 8-26 1-3 3-8 3-11 0-2 1-5 2-7 1-2 4-11 7-22 3-11 6-21 7-22 0-1 1-3 1-4 0 0 2-6 4-14 3-7 8-25 13-41 30-97 32-101 47-119 17-18 40-25 65-17 14 4 21 10 54 40 3 3 13 12 22 21 10 8 23 20 29 25 20 19 28 26 33 31l6 5 21-16c11-8 26-20 34-27 8-6 17-13 21-16 4-3 9-7 12-9 2-1 9-7 16-12 107-83 107-83 136-88 24-4 55 4 74 18 16 13 32 36 35 51 2 9 7 34 8 40 0 3 4 22 8 44 12 58 19 96 28 141 2 10 4 22 5 27 1 5 3 12 3 16 1 3 2 10 3 14 1 5 2 10 2 13 1 2 2 7 3 11 1 4 3 18 6 31 2 13 5 25 5 27 3 12 10 48 11 54 0 6 5 31 8 40 1 3 2 11 3 17 3 21 4 24 5 29 1 2 2 7 3 11 0 4 1 10 2 14 1 4 3 10 3 14 0 4 3 15 5 24 2 10 4 19 4 21 0 2 1 7 2 11 1 4 3 10 3 14 1 4 2 11 3 16 1 5 2 11 3 14 0 3 3 17 6 31 3 14 6 28 6 31 1 4 2 11 4 18 1 6 2 14 3 17 1 5 10 54 14 75 4 20-2 48-13 64-15 23-47 36-75 32z m6-87c0-3-8-49-21-115-4-17-12-60-19-95-7-35-17-86-22-112-13-68-36-183-38-195-1-5-2-13-3-17-1-4-6-29-12-58-5-27-11-60-14-71-2-12-9-48-15-81-12-60-14-67-22-69-9-2-21 5-85 55-29 23-86 67-145 112-14 10-28 21-30 23l-5 4-28-27c-16-14-36-32-44-39-8-8-28-26-45-41-16-15-30-27-32-28-3 0-5-12 15 112 5 34 10 69 11 76l2 14 23 22c13 11 30 27 38 35 29 27 76 71 126 117 38 36 81 76 106 99 6 6 30 28 53 50 64 59 73 68 73 73 0 10-6 12-16 8-4-2-20-10-35-20-23-14-130-80-149-92-16-10-31-19-50-31-9-5-28-18-44-27-15-10-34-21-41-25-12-8-26-16-55-35-8-5-36-22-63-39-28-17-55-34-62-38-7-5-14-9-17-10-6-2-11-1-71 20-26 8-77 26-113 38-36 12-66 22-67 23-2 2 2 4 21 12 9 4 26 11 37 16 12 5 30 13 42 17 11 5 36 16 54 23 18 8 46 20 61 26 15 6 37 16 50 21 13 6 34 14 45 19 12 5 24 10 28 12 4 2 25 10 46 19 21 9 46 19 54 23 9 4 29 12 44 19 16 6 33 14 40 16 6 3 26 11 44 19 19 8 49 21 68 29 19 7 37 15 39 16 7 3 53 23 88 37 16 6 33 14 40 17 6 2 23 10 37 15 15 6 30 13 34 15 3 1 13 5 20 8 8 3 16 6 17 7 5 3 7 2 7-2z" horiz-adv-x="1112" />

<glyph glyph-name="star-empty" unicode="&#xe815;" d="M635 290l170 166-235 34-106 213-105-213-236-34 171-166-41-235 211 111 211-111z m294 199q0-12-15-27l-202-197 48-279q0-4 0-12 0-28-23-28-10 0-22 7l-251 132-250-132q-12-7-23-7-11 0-17 9t-6 19q0 4 1 12l48 279-203 197q-14 15-14 27 0 21 31 26l280 40 126 254q11 23 27 23t28-23l125-254 280-40q32-5 32-26z" horiz-adv-x="928.6" />

<glyph glyph-name="clothes-hanger" unicode="&#xe816;" d="M593 791c-80-40-117-163-56-178 30-8 40 2 57 57 19 60 85 78 127 35 43-42 28-98-34-132-42-23-60-56-60-114l0-39-282-177c-264-166-282-179-296-206-20-38-20-58 0-94 30-57-14-54 624-52 552 2 564 2 582 16 42 31 54 84 30 129-14 27-34 41-297 207l-281 177 1 37c2 34 3 37 23 46 32 15 69 52 83 84 25 54 9 141-35 181-48 45-127 55-186 23z m352-620c266-168 289-185 258-197-17-6-1065-5-1075 2-5 3-8 11-7 17 3 13 531 350 546 348 6 0 131-77 278-170z" horiz-adv-x="1333" />

<glyph glyph-name="share" unicode="&#xe817;" d="M855 843c-97-15-167-100-162-196 0-9 1-20 2-24l0-7-26-12c-15-6-81-36-146-65-65-30-124-56-131-60-7-3-20-8-27-12l-15-6-4 6c-10 12-31 32-44 40-20 14-44 24-69 30-14 3-56 3-71 0-69-13-126-63-146-129-6-19-8-28-9-51-1-35 4-59 19-89 10-20 21-36 37-52 16-16 31-27 50-36 31-15 49-19 84-19 22 0 26 1 40 4 41 9 78 32 103 63 6 6 10 12 10 12 1 0 69-30 152-67 194-86 195-86 195-87 0-1-1-7-3-15-8-58 12-116 55-160 35-35 77-53 126-55 96-4 179 64 195 161 3 17 2 52-2 69-16 66-64 120-128 140-22 7-30 8-59 8-24 0-28 0-41-3-42-11-78-34-104-66-6-7-8-9-10-8-3 0-342 151-344 152 0 0 0 4 1 10 3 16 4 39 1 57-1 9-2 16-2 17 1 0 26 12 57 25 31 14 84 38 118 54 34 15 71 32 82 37 11 5 33 15 49 22 16 7 31 14 34 15l4 2 7-9c9-13 29-31 44-41 21-15 43-24 70-30 16-3 54-3 71 0 79 17 139 79 152 158 3 18 2 53-2 70-15 65-62 117-124 139-20 7-33 9-58 9-13 0-27 0-31-1z m59-78c39-11 67-39 79-78 3-11 3-15 4-30 0-26-6-45-19-65-21-33-57-52-97-51-82 0-136 84-104 160 15 36 49 62 88 68 13 2 36 0 49-4z m-686-304c33-10 60-33 74-64 9-22 12-53 6-75-21-77-109-111-176-67-22 15-38 36-46 63-3 11-4 15-4 32 0 18 1 21 4 32 11 38 39 66 75 78 21 6 47 7 67 1z m682-304c22-6 38-15 53-31 21-20 32-44 34-73 3-55-32-105-86-119-16-4-42-4-57 0-28 7-52 24-68 48-13 20-18 38-18 64 0 21 3 33 12 51 16 32 44 54 80 61 11 3 40 2 50-1z" horiz-adv-x="1076" />

<glyph glyph-name="trophy-cup" unicode="&#xe818;" d="M167 841c-12-4-18-7-26-15-18-18-22-42-11-66 6-14 23-28 37-30l7-1-1-24 0-22-77-1c-85 0-83 0-88-11-5-10 1-62 13-111 14-57 34-107 64-157 10-17 37-54 49-68 7-9 41-42 48-48 51-43 102-72 171-98 8-3 20-8 27-11 6-3 20-9 31-12 10-4 20-7 20-8 2-1-5-37-9-54-4-13-14-35-16-37-1 0-3-4-6-7-7-10-10-12-30-22-19-10-36-20-37-23-1-1-2-1-3-1 0 1-4-1-7-4-3-3-5-5-6-5-1 0-9-7-18-16l-17-16-18 0c-29 0-46-6-58-21-17-21-18-47-3-69 7-11 19-20 30-23 5-2 65-2 264-2l256 0 9 3c12 6 19 12 26 23 19 30 8 68-25 83-9 4-12 5-32 6-14 0-24 1-25 2-31 30-51 45-79 59-9 4-20 10-24 13-21 14-35 47-43 96-2 8-2 15-2 15 1 1 4 2 8 3 17 5 30 10 47 18 21 10 20 9 42 17 22 8 81 38 89 44 1 1 2 2 3 2 2 0 37 25 47 34 3 2 7 6 9 7 17 12 60 58 76 81 3 5 6 9 7 10 4 4 24 36 30 48 2 2 6 12 10 20 31 59 51 133 57 204 2 17 1 20-1 25-5 11-2 11-87 11l-78 1 0 22 0 23 9 2c20 7 35 24 39 44 6 29-12 59-42 67-14 3-643 3-656 0z m653-38c5-4 10-12 10-19 0-5-5-13-11-16-5-4-11-4-324-4-352 0-325-1-332 11-6 10-3 22 8 28 5 3 11 3 324 3 317 0 319 0 325-3z m-39-156c-1-83-2-103-10-146-10-56-27-108-50-156-11-21-27-48-32-54-1-1-4-4-5-6-7-11-46-51-49-51-1 0-3-1-4-2-3-3-16-11-28-18-42-23-100-31-154-21-15 3-37 9-47 14-3 2-6 3-7 2-1-1-1 0-1 1 0 1-3 3-5 4-11 4-41 25-51 35-11 11-28 31-35 40-4 6-9 12-10 13-4 5-15 26-26 48-29 62-46 121-54 195-2 17-3 43-3 103l0 79 286 0 286 0-1-80z m-608-27c0-116 27-225 77-315 4-6 7-12 8-13 6-7 16-24 14-24-5 0-41 24-62 41-6 6-20 19-31 30-50 50-87 113-112 188-12 37-23 91-23 112l0 7 65 0 64 0 0-26z m773 19c0-26-15-92-31-135-9-23-11-27-24-52-36-72-92-135-156-175-20-13-21-11-7 9 26 37 54 103 68 162 14 54 19 92 20 156l1 42 65 0 64 0 0-7z m-424-487c0-5 7-43 11-54 13-47 32-73 68-91 11-6 26-14 34-19 25-17 40-15-140-15-143 0-158 0-157 2 4 5 30 21 48 30 9 5 20 11 25 15 26 20 45 57 54 111 2 10 3 20 3 20 0 1 12 2 27 2 15 0 27-1 27-1z m232-222c10-10 8-26-4-33-5-3-10-3-255-3-275 0-256-1-263 10-6 10-3 21 7 28l6 4 252-1 252 0 5-5z" horiz-adv-x="990" />

<glyph glyph-name="truck" unicode="&#xe819;" d="M0 319l0 343q0 40 27 67t67 27l469 0q39 0 66-27t27-67l0-62 125 0q51 0 78-41l125-187q16-24 16-53l0-188q0-39-27-66t-67-27l-35 0q-12-42-45-68t-76-26-76 26-45 68l-164 0q-12-42-45-68t-76-26-76 26-45 68l-35 0q-40 0-67 27t-27 66l0 94q-39 0-67 27t-27 67z m63 0q0-14 8-23t23-8l469 0q13 0 22 8t9 23l0 343q0 14-9 23t-22 9l-469 0q-14 0-23-9t-8-23l0-343z m93-188q0-13 9-22t23-9l35 0q11 41 45 67t76 27 76-27 45-67l164 0q12 41 45 67t76 27 76-27 45-67l35 0q14 0 23 9t8 22l0 188q0 10-5 17l-125 188q-8 14-26 14l-125 0 0-219q0-39-27-67t-66-27l-407 0 0-94z m125-62q0-26 19-44t44-19 44 19 18 44-18 44-44 18-44-18-19-44z m407 0q0-26 18-44t44-19 44 19 18 44-18 44-44 18-44-18-18-44z m0 219l0 187q0 14 8 22t23 9l31 0q18 0 25-13l94-141q6-8 6-18l0-46q0-14-9-23t-22-9l-125 0q-14 0-23 9t-8 23z m31 0l125 0 0 46-94 141-31 0 0-187z" horiz-adv-x="1000" />

<glyph glyph-name="warranty" unicode="&#xe81a;" d="M387 801c-74-44-233-105-311-120l-40-8 3-179c3-161 4-183 17-225 43-147 140-253 332-365l28-17 63 39c179 110 262 209 300 360 14 55 15 71 15 223l0 164-61 13c-70 16-194 64-268 105l-51 27-27-17z m94-77c83-40 141-62 210-81l54-15-3-147c-3-153-7-180-37-252-21-50-62-110-104-149-32-31-173-130-185-130-3 0-41 24-85 53-102 68-152 120-190 200-45 90-50 116-50 281l0 144 56 16c71 21 142 49 209 84 30 14 55 26 56 27 1 1 32-13 69-31z m-13-337c-50-51-94-93-98-93-4 0-29 21-55 47l-48 47-19-18-18-18 69-71 70-72 117 117 117 117-19 20c-10 10-19 18-21 18-2 0-45-43-95-94z" horiz-adv-x="825" />

<glyph glyph-name="heart-empty" unicode="&#xe81b;" d="M1 521q7 115 79 191l2 0 2 2q88 76 199 76t191-70q32 28 67 45l2 2 2 0q56 23 117 23 88 2 161-43t110-124l0-2 2-4q30-106 10-202t-80-175q-62-88-162-172 0-2-2-2-49-45-107-90-34-25-59-41-33-23-55-23l-6-2-5 2q-28 3-59 29-10 6-21 16t-16 13l-2 0q-246 188-328 340l0 2q-49 94-42 209z m85-10q-6-86 33-162 74-135 303-310l2 0q6-6 18-16t19-14q8-6 15-10 8 2 14 6 22 14 51 37 58 43 105 88 94 80 151 161 107 142 58 298-27 57-78 88t-113 29q-43 0-86-17-39-22-68-57l-32-43-35 43q-52 65-141 73t-161-53q-49-55-55-141z" horiz-adv-x="953" />

<glyph glyph-name="heart-empty-1" unicode="&#xe81c;" d="M929 517q0 46-12 80t-31 55-46 33-52 18-55 4-62-14-62-36-48-40-34-34q-10-13-27-13t-27 13q-14 15-34 34t-48 40-62 36-62 14-55-4-52-18-46-33-31-55-12-80q0-93 105-198l324-312 324 312q105 105 105 198z m71 0q0-123-128-251l-347-335q-10-10-25-10t-25 10l-348 336q-5 5-15 15t-31 37-38 54-30 67-13 77q0 123 71 192t196 70q34 0 70-12t67-33 54-38 42-38q20 20 42 38t54 38 67 33 70 12q125 0 196-70t71-192z" horiz-adv-x="1000" />

<glyph glyph-name="down-open" unicode="&#xe81d;" d="M564 422l-234-224q-18-18-40-18t-40 18l-234 224q-16 16-16 41t16 41q38 38 78 0l196-188 196 188q40 38 78 0 16-16 16-41t-16-41z" horiz-adv-x="580" />

<glyph glyph-name="down-open-1" unicode="&#xe81e;" d="M939 399l-414-413q-10-11-25-11t-25 11l-414 413q-11 11-11 26t11 25l93 92q10 11 25 11t25-11l296-296 296 296q11 11 25 11t26-11l92-92q11-11 11-25t-11-26z" horiz-adv-x="1000" />

<glyph glyph-name="down-dir" unicode="&#xe81f;" d="M571 457q0-14-10-25l-250-250q-11-11-25-11t-25 11l-250 250q-11 11-11 25t11 25 25 11h500q14 0 25-11t10-25z" horiz-adv-x="571.4" />

<glyph glyph-name="right-dir" unicode="&#xe820;" d="M321 350q0-14-10-25l-250-250q-11-11-25-11t-25 11-11 25v500q0 15 11 25t25 11 25-11l250-250q10-10 10-25z" horiz-adv-x="357.1" />

<glyph glyph-name="left-dir" unicode="&#xe821;" d="M357 600v-500q0-14-10-25t-26-11-25 11l-250 250q-10 11-10 25t10 25l250 250q11 11 25 11t26-11 10-25z" horiz-adv-x="357.1" />

<glyph glyph-name="down-open-big" unicode="&#xe822;" d="M63 570l370-356 372 356q22 26 48 0 26-22 0-48l-396-392q-22-22-48 0l-396 392q-26 26 0 48 24 24 50 0z" horiz-adv-x="866" />

<glyph glyph-name="left-open-big" unicode="&#xe823;" d="M452-20q26-26 0-48-26-26-48 0l-392 394q-24 24 0 50l392 394q22 26 48 0 26-22 0-48l-358-372z" horiz-adv-x="465" />

<glyph glyph-name="right-open-big" unicode="&#xe824;" d="M13-20l358 370-358 372q-26 26 0 48 26 26 48 0l392-394q24-26 0-50l-392-394q-22-26-48 0-26 22 0 48z" horiz-adv-x="465" />

<glyph glyph-name="up-open-big" unicode="&#xe825;" d="M804 130l-372 358-370-358q-26-22-50 0-24 24 0 50l396 390q26 26 48 0l396-390q24-26 0-50-26-22-48 0z" horiz-adv-x="864" />

<glyph glyph-name="right-open-mini" unicode="&#xe826;" d="M13 180l158 170-158 172q-26 26 0 48 26 26 48 0l192-194q24-26 0-50l-192-194q-22-26-48 0-26 22 0 48z" horiz-adv-x="265" />

<glyph glyph-name="left-open-mini" unicode="&#xe827;" d="M252 180q26-26 0-48-26-26-48 0l-192 194q-24 24 0 50l192 194q22 26 48 0 26-22 0-48l-156-172z" horiz-adv-x="265" />

<glyph glyph-name="down-open-mini" unicode="&#xe828;" d="M405 470q22 26 48 0 26-22 0-48l-196-192q-22-22-48 0l-196 192q-26 26 0 48 24 24 50 0l170-156z" horiz-adv-x="466" />

<glyph glyph-name="down" unicode="&#xe829;" d="M0 283q0 25 18 43t44 18 42-18l244-243v642q0 25 18 43t43 18 43-18 18-43v-642l243 243q18 18 43 18t43-18q18-18 18-43t-18-44l-390-390-391 390q-18 20-18 44z" horiz-adv-x="817.4" />

<glyph glyph-name="up" unicode="&#xe82a;" d="M0 354q0 26 18 44l391 390 390-390q18-18 18-44 0-26-18-43-18-18-43-18t-43 18l-243 243v-642q0-25-18-43t-43-18q-26 0-44 18t-17 43v642l-244-243q-18-18-43-18t-43 18q-18 17-18 43z" horiz-adv-x="817.4" />

<glyph glyph-name="thumbs-up" unicode="&#xe82b;" d="M811 470q38-13 58-51t15-77l-35-312q-6-39-32-70t-58-44q-5-1-26-9t-29-11-30-7-45-6-56-2q-83 0-174 26t-130 56q-1 1-3 2t-4 4-3 4q-46-40-103-40-65 0-110 45t-46 111l0 313q0 65 46 110t110 46q77 0 124-63 44 44 64 85t21 108q0 54 38 92t92 39 92-39 38-92q0-94-16-188 170-17 202-30z m-655-432q22 0 37 15t16 36l0 313q0 21-16 36t-37 16-37-16-15-36l0-313q0-21 15-36t37-15z m590 7l35 312q3 12-6 16-15 4-107 15t-119 14l-69-10 16 73q25 117 25 223 0 10-8 18t-18 8-18-8-8-18q0-54-11-98t-32-78-37-51-40-43q-36-36-36-69l0-260q0-30 18-44 24-17 99-38t143-22q26 0 45 1t35 5 23 5 23 9 24 9q6 3 14 13t9 18z" horiz-adv-x="885" />

<glyph glyph-name="thumbs-down" unicode="&#xe82c;" d="M729 768q65 0 111-46t45-110l0-313q0-65-45-111t-111-45q-76 0-124 62-42-42-63-84t-21-109q0-54-38-92t-92-39-92 39-39 92q0 95 16 188-173 19-201 29-37 14-59 52t-15 78l35 311q7 38 32 70t58 44q5 1 26 9t29 11 30 8 45 6 57 1q82 0 174-26t131-55q2-1 5-5t3-5q47 40 103 40z m-313-755q0 54 11 97t33 78 36 52 40 43q37 36 37 69l0 260q0 11-7 25t-12 18q-24 18-99 39t-142 21q-27 0-46-1t-35-4-23-6-23-9-23-8q-7-3-15-13t-9-19l-34-311q-2-12 5-16 15-4 108-15t118-14l69 10-15-74q-25-122-25-222 0-10 8-18t17-9 18 9 8 18z m365 286l0 313q0 21-15 36t-37 15-36-15-15-36l0-313q0-21 15-37t36-15 37 15 15 37z" horiz-adv-x="885" />

<glyph glyph-name="dress-size-1" unicode="&#xe82d;" d="M1065 838c-13-6-131-126-134-136-6-20 12-40 33-36 8 2 16 9 46 40l37 37 0-392 0-392-37 37c-37 37-38 38-50 38-17 0-28-10-28-28l0-12 64-64c68-68 74-72 90-65 13 5 132 125 135 136 6 20-12 39-33 36-8-2-16-9-46-40l-37-37 0 392 0 392 37-38c37-36 38-37 50-37 17 0 28 10 28 28l0 12-62 63c-55 54-73 70-83 70-1-1-5-2-10-4z m-790-114c-48-10-68-23-153-97-91-80-100-88-106-103-8-17-8-42 0-58 8-17 96-113 111-121 13-7 37-11 53-8 5 1 17 6 25 11l16 10 0-142c0-95 1-147 3-157 9-42 41-76 83-89 14-4 35-4 180-3l164 0 18 9c25 12 45 33 58 58l9 19 2 152 1 153 16-10c14-9 19-10 36-11 21-2 38 3 52 15 17 14 94 100 100 112 4 9 6 16 6 31 0 34-2 35-96 118-45 40-91 78-101 84-38 23-70 32-117 32-32 0-33-1-41-8-8-7-9-10-11-29-6-50-42-87-92-94-25-4-59 7-80 26-19 16-35 50-35 73 0 12-7 25-14 29-8 4-67 3-87-2z m50-67c10-38 46-82 81-99 91-44 198 1 227 95l7 20 13-1c23-3 49-12 67-23 13-8 146-121 168-143 9-9 5-16-39-64-23-26-44-48-47-49-7-3-14 1-48 26-29 22-35 25-44 25-9 0-13-2-20-8l-8-8 0-174c0-195 1-193-19-213-19-20-20-20-189-19-147 1-150 1-160 7-6 3-15 9-19 14-16 17-16 12-16 202 0 116-1 176-3 182-4 11-13 17-27 17-9 0-15-4-46-26-35-27-37-28-46-24-8 3-88 92-90 99-2 8-3 7 91 89 80 70 95 80 133 87 29 6 30 5 34-12z" horiz-adv-x="1232" />

<glyph glyph-name="comment-empty" unicode="&#xf0e5;" d="M500 636q-114 0-213-39t-157-105-59-142q0-62 40-119t113-98l48-28-15-53q-13-51-39-97 85 36 154 96l24 21 32-3q38-5 72-5 114 0 213 39t157 105 59 142-59 142-157 105-213 39z m500-286q0-97-67-179t-182-130-251-48q-39 0-81 4-110-97-257-135-27-8-63-12h-3q-8 0-15 6t-9 15v1q-2 2 0 6t1 6 2 5l4 5t4 5 4 5q4 5 17 19t20 22 17 22 18 28 15 33 15 42q-88 50-138 123t-51 157q0 97 67 179t182 130 251 48 251-48 182-130 67-179z" horiz-adv-x="1000" />

<glyph glyph-name="angle-up" unicode="&#xf106;" d="M600 189q0-7-6-12l-28-28q-5-6-12-6t-13 6l-220 219-219-219q-5-6-13-6t-12 6l-28 28q-6 5-6 12t6 13l260 260q5 6 12 6t13-6l260-260q6-5 6-13z" horiz-adv-x="642.9" />

<glyph glyph-name="circle-empty" unicode="&#xf10c;" d="M429 654q-83 0-153-41t-110-111-41-152 41-152 110-111 153-41 152 41 110 111 41 152-41 152-110 111-152 41z m428-304q0-117-57-215t-156-156-215-58-216 58-155 156-58 215 58 215 155 156 216 58 215-58 156-156 57-215z" horiz-adv-x="857.1" />

<glyph glyph-name="circle" unicode="&#xf111;" d="M857 350q0-117-57-215t-156-156-215-58-216 58-155 156-58 215 58 215 155 156 216 58 215-58 156-156 57-215z" horiz-adv-x="857.1" />

<glyph glyph-name="instagram" unicode="&#xf16d;" d="M571 350q0 59-41 101t-101 42-101-42-42-101 42-101 101-42 101 42 41 101z m77 0q0-91-64-156t-155-64-156 64-64 156 64 156 156 64 155-64 64-156z m61 229q0-21-15-36t-37-15-36 15-15 36 15 36 36 15 37-15 15-36z m-280 123q-4 0-43 0t-59 0-54-2-57-5-40-11q-28-11-49-32t-33-49q-6-16-10-40t-6-58-1-53 0-59 0-43 0-43 0-59 1-53 6-58 10-40q12-28 33-49t49-32q16-6 40-11t57-5 54-2 59 0 43 0 42 0 59 0 54 2 58 5 39 11q28 11 50 32t32 49q6 16 10 40t6 58 1 53 0 59 0 43 0 43 0 59-1 53-6 58-10 40q-11 28-32 49t-50 32q-16 6-39 11t-58 5-54 2-59 0-42 0z m428-352q0-128-3-177-5-116-69-180t-179-69q-50-3-177-3t-177 3q-116 6-180 69t-69 180q-3 49-3 177t3 177q5 116 69 180t180 69q49 3 177 3t177-3q116-6 179-69t69-180q3-49 3-177z" horiz-adv-x="857.1" />
</font>
</defs>
</svg>
