<svg width="118" height="14" viewBox="0 0 118 14" fill="none" xmlns="http://www.w3.org/2000/svg">
<path d="M4.07257 6.126V7.57647C4.07257 7.72878 4.15034 7.85098 4.30589 7.94307C4.42962 8.021 4.55512 8.05996 4.68239 8.05996H4.92632V9.80266H4.68239C4.47735 9.80266 4.25993 9.76901 4.03014 9.70171C3.92762 10.4845 3.66425 11.115 3.24002 11.5932C2.62136 12.298 1.71635 12.6505 0.524979 12.6505H0V10.9078H0.524979C1.17546 10.9078 1.63857 10.7608 1.91432 10.4668C2.1936 10.1728 2.33324 9.68046 2.33324 8.98975V6.126H4.07257ZM2.11052 3.97951L3.21351 2.86376L4.33771 3.99013L3.21881 5.10588L2.11052 3.97951Z" fill="#F04D7D"/>
<path d="M6.84944 8.05996C6.99438 8.05996 7.06685 8.12726 7.06685 8.26186V9.59013C7.06685 9.73181 6.99438 9.80266 6.84944 9.80266H4.63286C4.49145 9.80266 4.42074 9.73181 4.42074 9.59013V8.26186C4.42074 8.12726 4.49145 8.05996 4.63286 8.05996H6.84944Z" fill="#F04D7D"/>
<path d="M8.98748 8.05996C9.13243 8.05996 9.2049 8.12726 9.2049 8.26186V9.59013C9.2049 9.73181 9.13243 9.80266 8.98748 9.80266H6.7709C6.62949 9.80266 6.55879 9.73181 6.55879 9.59013V8.26186C6.55879 8.12726 6.62949 8.05996 6.7709 8.05996H8.98748Z" fill="#F04D7D"/>
<path d="M11.1255 8.05996C11.2705 8.05996 11.3429 8.12726 11.3429 8.26186V9.59013C11.3429 9.73181 11.2705 9.80266 11.1255 9.80266H8.90895C8.76754 9.80266 8.69684 9.73181 8.69684 9.59013V8.26186C8.69684 8.12726 8.76754 8.05996 8.90895 8.05996H11.1255Z" fill="#F04D7D"/>
<path d="M13.2636 8.05996C13.4085 8.05996 13.481 8.12726 13.481 8.26186V9.59013C13.481 9.73181 13.4085 9.80266 13.2636 9.80266H11.047C10.9056 9.80266 10.8349 9.73181 10.8349 9.59013V8.26186C10.8349 8.12726 10.9056 8.05996 11.047 8.05996H13.2636Z" fill="#F04D7D"/>
<path d="M15.4016 8.05996C15.5466 8.05996 15.619 8.12726 15.619 8.26186V9.59013C15.619 9.73181 15.5466 9.80266 15.4016 9.80266H13.185C13.0436 9.80266 12.9729 9.73181 12.9729 9.59013V8.26186C12.9729 8.12726 13.0436 8.05996 13.185 8.05996H15.4016Z" fill="#F04D7D"/>
<path d="M19.7138 7.1036C19.7421 7.27362 19.7562 7.43656 19.7562 7.59241C19.7562 8.07413 19.6184 8.50626 19.3426 8.8888C18.9007 9.49804 18.1813 9.80266 17.1844 9.80266H15.111V8.05996H17.1473C17.4654 8.05996 17.6899 8.01746 17.8207 7.93245C17.9551 7.85098 18.0222 7.72169 18.0222 7.54459C18.0222 7.49146 18.0152 7.43302 18.001 7.36926C17.9657 7.18861 17.9303 7.00443 17.895 6.8167C17.8808 6.74586 17.8667 6.6697 17.8525 6.58823L17.8313 6.48729L17.8154 6.38634C17.7624 6.09589 17.7217 5.88868 17.6934 5.76471L19.3532 5.25996C19.4593 5.75939 19.5795 6.37394 19.7138 7.1036ZM18.4783 12.8417L17.4389 11.7898L18.4677 10.7271L19.5282 11.7898L18.4783 12.8417ZM16.2405 12.8471L15.2011 11.7951L16.2246 10.7324L17.2851 11.7951L16.2405 12.8471Z" fill="#F04D7D"/>
<path d="M23.3709 8.06528V7.51803C23.3709 7.19216 23.302 6.93359 23.1641 6.74231C23.0262 6.55458 22.8388 6.46072 22.602 6.46072C22.3616 6.46072 22.1707 6.55458 22.0293 6.74231C21.8985 6.91588 21.8331 7.1408 21.8331 7.41708C21.8331 7.44896 21.8348 7.48261 21.8384 7.51803C21.849 7.70576 21.9321 7.84744 22.0876 7.94307C22.2219 8.02454 22.3934 8.06528 22.602 8.06528H23.3709ZM22.602 4.71803C23.3833 4.71803 24.0055 5.00316 24.4686 5.57343C24.8963 6.09412 25.1102 6.74231 25.1102 7.51803V9.46793C25.1102 10.7006 24.6029 11.5808 23.5883 12.1085C23.1959 12.314 22.7292 12.4627 22.1884 12.5548C21.7677 12.6292 21.3081 12.6664 20.8096 12.6664V10.9237C21.6934 10.9237 22.3581 10.7997 22.8035 10.5518C23.1641 10.3534 23.3444 10.1037 23.3444 9.80266H22.602C21.9692 9.80266 21.4336 9.63264 20.9952 9.2926C20.4614 8.88172 20.1945 8.2902 20.1945 7.51803C20.1945 6.78482 20.3713 6.16319 20.7248 5.65313C21.1561 5.02973 21.7818 4.71803 22.602 4.71803Z" fill="#F04D7D"/>
<path d="M27.9695 9.80266H26.2302V2.9222H27.9695V9.80266ZM29.3747 2.15712H26.7764C26.5678 2.15712 26.391 2.1642 26.2461 2.17837C26.1047 2.18899 25.9827 2.22087 25.8802 2.274C25.7812 2.32359 25.6981 2.39798 25.6309 2.49715C25.5673 2.59279 25.509 2.72562 25.4559 2.89564L24.4696 2.60342C24.5615 2.28463 24.687 2.02429 24.8461 1.82239C25.0052 1.62049 25.1961 1.46287 25.4188 1.34952C25.6097 1.25743 25.8165 1.19722 26.0393 1.16888C26.262 1.137 26.5077 1.12106 26.7764 1.12106H29.3747V2.15712Z" fill="#F04D7D"/>
<path d="M31.3116 6.13662C31.1313 6.78128 31.0111 7.30904 30.951 7.71992C30.9475 7.74826 30.9457 7.7766 30.9457 7.80493C30.9457 7.87223 30.9581 7.93068 30.9828 7.98027C31.0253 8.07236 31.1013 8.11841 31.2109 8.11841H37.4735C37.728 8.11841 37.8553 8.00152 37.8553 7.76774V6.126H39.5946V7.42239C39.6123 7.64908 39.6565 7.80493 39.7272 7.88994C39.8191 8.00329 39.9906 8.05996 40.2416 8.05996H40.8514V9.80266H40.2416C39.6052 9.80266 39.1386 9.68223 38.8416 9.44137C38.5659 9.62555 38.1823 9.74598 37.6909 9.80266C37.3339 9.84162 36.6993 9.8611 35.7872 9.8611H32.7805C31.7836 9.8611 31.1455 9.83631 30.8662 9.78672C30.3218 9.69462 29.9064 9.43074 29.62 8.99507C29.4397 8.72233 29.3266 8.41063 29.2806 8.05996C29.2665 7.93245 29.2594 7.79962 29.2594 7.66148C29.2594 7.50917 29.2683 7.35155 29.2859 7.18861C29.3107 6.96901 29.3761 6.65553 29.4821 6.2482C29.514 6.11714 29.5493 5.98431 29.5882 5.84971C29.6023 5.80367 29.6147 5.76116 29.6253 5.7222C29.6324 5.69032 29.6377 5.67084 29.6412 5.66376L31.3116 6.13662ZM35.6281 5.83378L34.5888 4.78178L35.6175 3.71917L36.6781 4.78178L35.6281 5.83378ZM33.4062 5.83909L32.3669 4.7871L33.3903 3.72448L34.4509 4.7871L33.4062 5.83909Z" fill="#F04D7D"/>
<path d="M42.7747 8.05996C42.9196 8.05996 42.9921 8.12726 42.9921 8.26186V9.59013C42.9921 9.73181 42.9196 9.80266 42.7747 9.80266H40.5581C40.4167 9.80266 40.346 9.73181 40.346 9.59013V8.26186C40.346 8.12726 40.4167 8.05996 40.5581 8.05996H42.7747Z" fill="#F04D7D"/>
<path d="M44.9127 8.05996C45.0577 8.05996 45.1301 8.12726 45.1301 8.26186V9.59013C45.1301 9.73181 45.0577 9.80266 44.9127 9.80266H42.6961C42.5547 9.80266 42.484 9.73181 42.484 9.59013V8.26186C42.484 8.12726 42.5547 8.05996 42.6961 8.05996H44.9127Z" fill="#F04D7D"/>
<path d="M47.0508 8.05996C47.1957 8.05996 47.2682 8.12726 47.2682 8.26186V9.59013C47.2682 9.73181 47.1957 9.80266 47.0508 9.80266H44.8342C44.6928 9.80266 44.6221 9.73181 44.6221 9.59013V8.26186C44.6221 8.12726 44.6928 8.05996 44.8342 8.05996H47.0508Z" fill="#F04D7D"/>
<path d="M49.1888 8.05996C49.3338 8.05996 49.4062 8.12726 49.4062 8.26186V9.59013C49.4062 9.73181 49.3338 9.80266 49.1888 9.80266H46.9722C46.8308 9.80266 46.7601 9.73181 46.7601 9.59013V8.26186C46.7601 8.12726 46.8308 8.05996 46.9722 8.05996H49.1888Z" fill="#F04D7D"/>
<path d="M51.9526 7.91119C52.3061 7.81556 52.5571 7.67211 52.7056 7.48083C52.8116 7.34269 52.8647 7.1709 52.8647 6.96546C52.8647 6.71752 52.794 6.50677 52.6526 6.33321C52.4864 6.12777 52.2531 6.02505 51.9526 6.02505C51.6521 6.02505 51.4188 6.12777 51.2526 6.33321C51.1112 6.50677 51.0405 6.71752 51.0405 6.96546C51.0405 7.1709 51.0953 7.34269 51.2049 7.48083C51.3498 7.67211 51.5991 7.81556 51.9526 7.91119ZM51.9526 4.28235C52.7197 4.28235 53.3508 4.54624 53.8457 5.074C54.3265 5.58406 54.5669 6.21455 54.5669 6.96546C54.5669 7.36926 54.4926 7.73409 54.3442 8.05996H54.9752V9.80266H54.2063C53.3437 9.80266 52.5925 9.70525 51.9526 9.51044C51.3481 9.70525 50.5951 9.80266 49.6936 9.80266H48.9247V8.05996H49.5557C49.4072 7.73409 49.333 7.36926 49.333 6.96546C49.333 6.21455 49.5734 5.58406 50.0542 5.074C50.5526 4.54624 51.1855 4.28235 51.9526 4.28235ZM50.8125 2.65655L51.9155 1.5408L53.0397 2.66717L51.9208 3.78292L50.8125 2.65655Z" fill="#F04D7D"/>
<path d="M60.2895 7.76774C60.537 7.96255 60.8817 8.05996 61.3236 8.05996V9.80266C60.4928 9.80266 59.7946 9.58305 59.2289 9.14383C59.1017 9.0482 58.9585 8.92068 58.7994 8.76129C58.5802 9.05174 58.2956 9.28729 57.9457 9.46793C57.5179 9.69108 57.0495 9.80266 56.5404 9.80266H54.4882V8.05996H56.5404C56.7419 8.05996 56.9328 8.01923 57.1131 7.93776C57.2934 7.85275 57.4118 7.75003 57.4684 7.6296C57.4967 7.57293 57.5108 7.5074 57.5108 7.43302C57.5108 7.25237 57.4207 7.02568 57.2404 6.75294L57.0601 6.51385C56.8232 6.21986 56.5139 5.83023 56.1321 5.34497C55.9942 5.17141 55.8705 5.01379 55.7609 4.87211C55.6619 4.74459 55.6107 4.67906 55.6071 4.67552L55.9094 3.35787L60.5069 1.13169L61.2652 2.69905L57.6434 4.45237C57.8202 4.67198 58.3646 5.38216 59.2767 6.58292C59.7362 7.20633 60.0739 7.60126 60.2895 7.76774ZM55.9942 1.73207L59.8865 0L60.1622 0.595066L55.9253 2.48653L55.9942 1.73207Z" fill="#F04D7D"/>
<path d="M65.2308 7.94839C65.3651 7.84921 65.4323 7.67388 65.4323 7.42239V6.13131H67.1716V7.42239C67.1716 7.642 67.2122 7.79785 67.2936 7.88994C67.389 8.00329 67.564 8.05996 67.8185 8.05996C68.2215 8.05996 68.4231 7.92005 68.4231 7.64023C68.4231 7.58001 68.4142 7.51271 68.3965 7.43833C68.195 6.60595 68.0642 6.04807 68.0041 5.76471L69.6904 5.36091C69.793 5.78596 69.9255 6.34383 70.0882 7.03453C70.1235 7.18684 70.1412 7.34624 70.1412 7.51271C70.1412 7.64731 70.1288 7.78722 70.104 7.93245C70.044 8.26186 69.9255 8.56116 69.7488 8.83036C69.3281 9.47856 68.7147 9.80266 67.9087 9.80266C67.5446 9.80266 67.2034 9.74775 66.8852 9.63795C66.6696 9.55648 66.4734 9.45022 66.2966 9.31916C65.8759 9.64149 65.3934 9.80266 64.849 9.80266C64.2763 9.80266 63.7796 9.64149 63.3589 9.31916C63.0725 9.64149 62.5652 9.80266 61.837 9.80266H60.8188V8.05996H61.837C62.0915 8.05996 62.2665 8.00329 62.3619 7.88994C62.4432 7.79785 62.4839 7.642 62.4839 7.42239V6.13131H64.2232V7.42239C64.2232 7.67388 64.2833 7.84921 64.4035 7.94839C64.4884 8.02277 64.6209 8.05996 64.8012 8.05996C64.9886 8.05996 65.1318 8.02277 65.2308 7.94839ZM66.2118 3.78292L65.1618 4.84554L64.1119 3.79355L65.1618 2.73093L66.2118 3.78292ZM68.5132 3.76698L67.4739 4.81897L66.3974 3.77761L67.4579 2.71499L68.5132 3.76698ZM67.2405 2.3962L66.3178 3.32068L65.4058 2.40683L66.3284 1.48235L67.2405 2.3962Z" fill="#F04D7D"/>
<path d="M76.9512 3.6926L77.0466 3.83074C77.0678 3.86262 77.0873 3.88918 77.105 3.91044C77.1297 3.94586 77.1527 3.98128 77.1739 4.0167C77.234 4.10171 77.2976 4.19026 77.3648 4.28235C77.538 4.53384 77.7307 4.81189 77.9428 5.11651C78.2186 5.50613 78.5191 5.93295 78.8443 6.39696C79.0988 6.76534 79.2438 7.14965 79.2791 7.5499C79.2862 7.62075 79.2897 7.69159 79.2897 7.76243C79.2897 8.09538 79.2137 8.41063 79.0617 8.70816C78.8743 9.06591 78.6057 9.34396 78.2557 9.54232C77.9022 9.74421 77.5062 9.84516 77.0678 9.84516C76.5588 9.84516 75.8959 9.7389 75.0793 9.52638C74.8354 9.46262 74.5897 9.39178 74.3422 9.31385C74.2644 9.2926 74.1902 9.26958 74.1195 9.24478C74.0947 9.2377 74.0735 9.23238 74.0558 9.22884L74.0399 9.21822H74.0293L74.5861 7.56584C74.7205 7.61189 74.8778 7.66148 75.0581 7.71461C75.2808 7.77837 75.5 7.83681 75.7156 7.88994C76.2954 8.03162 76.7461 8.10247 77.0678 8.10247C77.2976 8.10247 77.4479 8.03694 77.5186 7.90588C77.5433 7.85629 77.5557 7.80316 77.5557 7.74649C77.5557 7.64377 77.5115 7.52865 77.4231 7.40114C77.0979 6.93713 76.7974 6.50854 76.5217 6.11537C76.3131 5.81784 76.1186 5.53978 75.9383 5.28121C75.6555 4.88096 75.5141 4.67906 75.5141 4.67552L76.9512 3.6926Z" fill="#F04D7D"/>
<path d="M82.6141 9.80266H82.1369C81.7445 9.80266 81.3927 9.73359 81.0816 9.59545C80.8447 9.49273 80.6379 9.35281 80.4612 9.17571C80.2844 8.99861 80.1448 8.7914 80.0422 8.55408C79.9044 8.24238 79.8354 7.88994 79.8354 7.49677V2.14118H81.5695V7.49677C81.5695 7.71284 81.6101 7.86161 81.6914 7.94307C81.7692 8.021 81.9177 8.05996 82.1369 8.05996H82.6141V9.80266Z" fill="#F04D7D"/>
<path d="M84.5254 8.05996C84.6704 8.05996 84.7428 8.12726 84.7428 8.26186V9.59013C84.7428 9.73181 84.6704 9.80266 84.5254 9.80266H82.3088C82.1674 9.80266 82.0967 9.73181 82.0967 9.59013V8.26186C82.0967 8.12726 82.1674 8.05996 82.3088 8.05996H84.5254Z" fill="#F04D7D"/>
<path d="M88.2119 9.82922C88.2472 9.68046 88.2914 9.537 88.3445 9.39886C88.3621 9.34927 88.3798 9.30323 88.3975 9.26072L88.4187 9.21822C88.4222 9.20759 88.4258 9.20051 88.4293 9.19696C87.9733 9.43074 87.496 9.56711 86.9975 9.60607C87.047 9.88944 87.2097 10.1763 87.4854 10.4668C87.7223 10.7183 87.9556 10.8918 88.1854 10.9875C88.143 10.8387 88.1217 10.6775 88.1217 10.504C88.1217 10.2985 88.1518 10.0736 88.2119 9.82922ZM86.9127 7.84744C87.549 7.75889 87.9892 7.59241 88.2331 7.34801C88.3179 7.263 88.3781 7.17268 88.4134 7.07704C88.424 7.04162 88.4311 7.0062 88.4346 6.97078L88.4399 6.92827V6.89639C88.4399 6.76534 88.3975 6.65376 88.3126 6.56167C88.2137 6.45895 88.074 6.40759 87.8937 6.40759C87.6109 6.40759 87.374 6.6024 87.1831 6.99203C87.116 7.13017 87.0559 7.28956 87.0028 7.47021C86.9816 7.53751 86.964 7.60835 86.9498 7.68273C86.9357 7.73586 86.9233 7.79076 86.9127 7.84744ZM89.4315 5.21746C89.9017 5.60354 90.1368 6.16319 90.1368 6.89639C90.1368 7.34269 90.0219 7.74826 89.7921 8.11309C89.9442 8.07767 90.0838 8.05996 90.2111 8.05996H91.2027V9.80266H90.3277C90.2075 9.80266 90.0997 9.85224 90.0042 9.95142C89.9159 10.0471 89.854 10.1728 89.8186 10.3287C89.7974 10.4137 89.7868 10.4987 89.7868 10.5837C89.7868 10.8423 89.8894 11.0813 90.0944 11.3009L89.5429 12.7195C89.3379 12.7479 89.1505 12.762 88.9808 12.762C87.8884 12.762 86.9657 12.3583 86.2127 11.5507C85.937 11.2531 85.7054 10.9237 85.5181 10.5624C85.3625 10.2684 85.2635 10.0099 85.2211 9.78672C84.8605 9.79734 84.5317 9.80266 84.2348 9.80266V8.05996H84.6643C84.834 8.05642 84.9913 8.05111 85.1363 8.04402C85.2176 7.24706 85.412 6.58292 85.7196 6.05161C85.9706 5.61948 86.2817 5.29007 86.6529 5.06338C87.0276 4.83314 87.4412 4.71803 87.8937 4.71803C88.5159 4.71803 89.0285 4.8845 89.4315 5.21746Z" fill="#F04D7D"/>
<path d="M93.7955 7.57647C93.7955 7.74649 93.8362 7.86692 93.9175 7.93776C94.0094 8.01923 94.172 8.05996 94.4053 8.05996H94.6175V9.80266H94.4053C94.1756 9.80266 93.9582 9.77786 93.7531 9.72827C93.5905 9.68931 93.4385 9.63441 93.2971 9.56357C93.1344 9.48564 93.0125 9.40772 92.9312 9.32979C92.8499 9.40772 92.7191 9.48564 92.5388 9.56357C92.1817 9.72296 91.7575 9.80266 91.2661 9.80266H90.2692V8.05996H91.3881C91.6426 8.05996 91.8211 8.01746 91.9236 7.93245C92.0155 7.85806 92.0615 7.73941 92.0615 7.57647V6.13131H93.7955V7.57647ZM91.4464 3.68197L92.5494 2.56622L93.6736 3.6926L92.5547 4.80835L91.4464 3.68197Z" fill="#F04D7D"/>
<path d="M96.5334 8.05996C96.6784 8.05996 96.7508 8.12726 96.7508 8.26186V9.59013C96.7508 9.73181 96.6784 9.80266 96.5334 9.80266H94.3168C94.1754 9.80266 94.1047 9.73181 94.1047 9.59013V8.26186C94.1047 8.12726 94.1754 8.05996 94.3168 8.05996H96.5334Z" fill="#F04D7D"/>
<path d="M98.6715 8.05996C98.8164 8.05996 98.8889 8.12726 98.8889 8.26186V9.59013C98.8889 9.73181 98.8164 9.80266 98.6715 9.80266H96.4549C96.3135 9.80266 96.2428 9.73181 96.2428 9.59013V8.26186C96.2428 8.12726 96.3135 8.05996 96.4549 8.05996H98.6715Z" fill="#F04D7D"/>
<path d="M102.109 8.05996C102.289 8.05996 102.423 8.02277 102.512 7.94839C102.632 7.84921 102.692 7.67388 102.692 7.42239V6.13131H104.431V7.42239C104.431 7.65262 104.463 7.80848 104.527 7.88994C104.608 8.00329 104.774 8.05996 105.025 8.05996C105.206 8.05996 105.34 8.02277 105.428 7.94839C105.545 7.84921 105.603 7.67388 105.603 7.42239V6.13131H107.343V7.42239C107.343 7.642 107.383 7.79785 107.465 7.88994C107.56 8.00329 107.735 8.05996 107.99 8.05996H108.668V9.80266H107.99C107.261 9.80266 106.754 9.64149 106.468 9.31916C106.047 9.64149 105.566 9.80266 105.025 9.80266C104.332 9.80266 103.843 9.64149 103.556 9.31916C103.136 9.64149 102.662 9.80266 102.135 9.80266C101.577 9.80266 101.087 9.64149 100.666 9.31916C100.38 9.64149 99.8727 9.80266 99.1444 9.80266H98.3808V8.05996H99.1444C99.399 8.05996 99.574 8.00329 99.6694 7.88994C99.7507 7.79785 99.7914 7.642 99.7914 7.42239V6.13131H101.531V7.42239C101.531 7.67388 101.591 7.84921 101.711 7.94839C101.796 8.02277 101.928 8.05996 102.109 8.05996ZM103.456 3.93169L102.406 4.99431L101.356 3.94231L102.406 2.8797L103.456 3.93169ZM105.757 3.91575L104.718 4.96774L103.641 3.92638L104.702 2.86376L105.757 3.91575ZM104.484 2.54497L103.562 3.46945L102.65 2.5556L103.572 1.63112L104.484 2.54497Z" fill="#F04D7D"/>
<path d="M112.475 7.57647C112.475 7.74649 112.515 7.86692 112.597 7.93776C112.688 8.01923 112.851 8.05996 113.084 8.05996H113.859V9.80266H113.084C112.855 9.80266 112.637 9.77786 112.432 9.72827C112.27 9.68931 112.118 9.63441 111.976 9.56357C111.814 9.48564 111.692 9.40772 111.61 9.32979C111.529 9.40772 111.398 9.48564 111.218 9.56357C110.861 9.72296 110.437 9.80266 109.945 9.80266H108.163V8.05996H110.067C110.322 8.05996 110.5 8.01746 110.603 7.93245C110.695 7.85806 110.741 7.73941 110.741 7.57647V6.13131H112.475V7.57647ZM111.78 12.8736L110.741 11.8216L111.769 10.759L112.83 11.8216L111.78 12.8736ZM109.542 12.8789L108.503 11.8269L109.526 10.7643L110.587 11.8269L109.542 12.8789Z" fill="#F04D7D"/>
<path d="M117.958 7.1036C117.986 7.27362 118 7.43656 118 7.59241C118 8.07413 117.862 8.50626 117.586 8.8888C117.144 9.49804 116.425 9.80266 115.428 9.80266H113.355V8.05996H115.391C115.709 8.05996 115.934 8.01746 116.064 7.93245C116.199 7.85098 116.266 7.72169 116.266 7.54459C116.266 7.49146 116.259 7.43302 116.245 7.36926C116.209 7.18861 116.174 7.00443 116.139 6.8167C116.125 6.74586 116.11 6.6697 116.096 6.58823L116.075 6.48729L116.059 6.38634C116.006 6.09589 115.965 5.88868 115.937 5.76471L117.597 5.25996C117.703 5.75939 117.823 6.37394 117.958 7.1036ZM114.601 12.7514L113.551 11.7207L114.601 10.6368L115.651 11.7207L114.601 12.7514ZM116.886 12.7727L115.826 11.7207L116.902 10.6687L117.942 11.7207L116.886 12.7727ZM115.768 14L114.845 13.0755L115.757 12.1617L116.68 13.0861L115.768 14Z" fill="#F04D7D"/>
</svg>
